<?xml version="1.0" encoding="UTF-8"?><svg id="Capa_2" xmlns="http://www.w3.org/2000/svg" viewBox="0 0 367.09 147.46"><defs><style>.cls-1{fill:#1f1e1b;}</style></defs><g id="PÃGINA_1_-_Principal"><path class="cls-1" d="m57.4,147.46c-.05-.76-.11-1.52-.17-2.47,1.49-.09,2.85-.16,4.35-.25V2.87c-1.45-.28-2.84-.51-4.2-.89-.14-.04-.02-1.01-.02-1.68h18.9v22.31c.15.02.3.04.46.06.18-.34.38-.68.55-1.03C85.1,5.97,100.48-2.04,117.83.53c26.35,3.91,44.36,26.1,42.76,52.7-1.63,27.08-26.74,48.57-53.61,45.58-13.41-1.49-23.14-8.73-29.4-20.65-.29-.56-.56-1.13-.86-1.69-.02-.03-.12-.02-.31-.05v68.34c1.35.06,2.65.13,4.17.2v2.5h-23.18Zm19.29-98.05s0,0,.01,0c0,5.89-.62,11.86.12,17.65,2.06,16.29,16.78,29.18,32.96,29.49,17.56.34,32.76-11.26,35.57-27.91,1.94-11.53,1.31-23.29.47-34.88-1.25-17.4-16.42-30.89-34-31.22-17.34-.32-32.82,12.53-35.01,29.62-.72,5.66-.11,11.48-.11,17.23Z"/><path class="cls-1" d="m365.94,98.98h-18.91v-18.31c-.16-.07-.33-.13-.49-.2-.41.72-.83,1.43-1.23,2.16-6.37,11.43-18.69,17.95-31.82,16.17-13.11-1.77-22.04-9.23-26.07-21.83-6.46-20.2,8.68-40.61,29.89-40.69,3.93-.02,7.87-.15,11.8.03,9.58.42,18.01-7.27,17.73-17.34-.28-10-8.69-17.1-19.08-16.39-7.03.48-13.97,1.38-20.74,4.23-.39-.63-.78-1.25-1.5-2.42,4.05-1.08,7.7-2.3,11.45-3,7.14-1.34,14.35-2.09,21.51-.13,12.01,3.29,23.14,14.61,22.97,31.62-.19,20.16-.05,40.32-.05,60.48,0,3.08,0,3.07,3.12,3.22.48.02.94.2,1.42.3v2.11Zm-19.04-69.07c-.14-.12-.28-.25-.42-.37-5.25,8.33-13.25,9.76-22.1,9.31-3.28-.17-6.62-.19-9.87.24-7.78,1.04-13.9,8.09-13.97,15.88-.08,8.5-.08,17,0,25.49.09,8.48,7.38,15.81,15.88,16.1,15.17.53,28.42-10.73,30.12-25.82.44-3.96.32-7.99.34-11.99.04-9.61.01-19.22.01-28.84Z"/><path class="cls-1" d="m165.66,3.27c-1.41-1.7-4.84,1.04-4.49-3.05h23.31c.05.64.1,1.3.15,1.93-.31.16-.49.33-.68.34q-3.79.37-3.79,4.29c0,23.6.31,47.22-.13,70.81-.21,11.34,8.47,21.24,21.72,18.4,3.58-.76,6.95-2.5,10.4-3.83,1.44-.55,1.78-1.67,1.77-3.18-.05-15.03-.03-30.07-.03-45.1,0-12.79,0-25.57,0-38.36,0-3.28.18-2.97-2.94-2.97-.41,0-.82-.07-1.31-.11-.42-1.51-.42-2.45,1.57-2.43,13.2.1,26.41.13,39.61.19.4,0,.8.11,1.31.18.07,1.4.14,2.7.23,4.22,13.36-6.74,26.06-6.38,37.54,3.46,7.34,6.29,10.13,14.89,10.75,24.52h-14.54c-.04-.69-.12-1.44-.13-2.18-.01-3.09-.19-6.2.03-9.27.78-10.85-8.19-20.9-21.77-18.07-3.64.76-7.09,2.53-10.53,4.05-.71.31-1.4,1.6-1.4,2.44-.07,28.38-.06,56.76-.05,85.15,0,.54.11,1.09.17,1.75,1.41.08,2.72.15,4.14.23v2.26h-42.54c-.08-1.48-.17-2.92-.26-4.57-.62.27-1.12.46-1.59.71-18.47,10.01-41.01-.09-45.75-20.56-.5-2.17-.73-4.45-.74-6.67-.05-20.79-.03-41.59-.03-62.38v-2.19Zm71.95-.57h-9v93.72h9"/><path class="cls-1" d="m232.42,146.18c-4.19-.03-7.11-2.15-7.39-5.53l2.43.02c.19,2.03,1.93,3.5,4.94,3.52,2.64.02,4.13-1.39,4.15-3.15.03-4.56-11.07-1.98-11.02-8.9.02-2.74,2.64-4.98,6.53-4.95,3.95.03,6.54,2.15,6.72,5.7l-2.37-.02c-.12-2.06-1.63-3.63-4.43-3.65-2.47-.02-4.03,1.29-4.04,2.91-.04,5,10.9,2.41,10.95,8.94-.02,2.97-2.64,5.15-6.46,5.12Z"/><path class="cls-1" d="m244.34,120.99l2.37.02-.11,14.8,7.5-8.19,3.31.02-8.82,9.13,8.75,9.33-3.21-.02-7.54-8.34-.06,8.28-2.37-.02.19-25.01Z"/><path class="cls-1" d="m260.85,122.43c0-1.01.79-1.72,1.74-1.71s1.72.72,1.71,1.74c0,1.01-.79,1.75-1.74,1.74-.95,0-1.72-.76-1.71-1.77Zm.5,5.24l2.37.02-.14,18.45-2.37-.02.14-18.45Z"/><path class="cls-1" d="m283.7,135.75c.03-4.09-2.19-6.2-5.56-6.23-3.45-.03-5.86,2.12-5.9,6.61l-.08,10.07-2.37-.02.14-18.45,2.37.02-.02,3.14c1.2-2.29,3.57-3.45,6.31-3.43,4.19.03,7.48,2.62,7.44,8.03l-.08,10.81-2.33-.02.08-10.54Z"/><path class="cls-1" d="m300.05,127.7c4.63.04,7.62,2.52,8.43,6.35l-2.53-.02c-.59-2.64-2.81-4.28-5.92-4.3-3.62-.03-6.57,2.42-6.61,7.42-.04,5,2.88,7.52,6.5,7.55,3.11.02,5.32-1.55,5.98-4.25l2.53.02c-.87,3.68-3.9,6.26-8.53,6.22-5.2-.04-8.93-3.72-8.88-9.56.04-5.85,3.82-9.47,9.03-9.43Z"/><path class="cls-1" d="m321.47,127.86c3.72.03,6.24,2.04,7.27,4.38l.03-4.06,2.37.02-.14,18.45-2.37-.02.03-4.09c-1.1,2.36-3.68,4.33-7.37,4.3-5.04-.04-8.76-3.82-8.72-9.6.04-5.78,3.82-9.44,8.89-9.4Zm.42,2.06c-3.89-.03-6.88,2.65-6.92,7.35-.03,4.66,2.92,7.49,6.8,7.52,3.79.03,6.88-2.79,6.92-7.38.03-4.6-3.02-7.46-6.8-7.49Z"/><path class="cls-1" d="m339.61,146.72l-2.37-.02.14-18.45,2.37.02-.03,3.28c1.03-2.26,3.17-3.59,6.35-3.57l-.02,2.47h-.64c-3.08-.03-5.69,1.34-5.72,5.97l-.08,10.31Z"/><path class="cls-1" d="m358.29,147.13c-5.24-.04-9.03-3.72-8.98-9.56.04-5.88,3.82-9.47,9.13-9.43,5.41.04,8.69,3.92,8.66,8.62,0,.74,0,1.22-.08,1.86l-15.31-.12c.17,4.33,3.16,6.61,6.61,6.64,3.14.02,5.28-1.62,5.98-4.08l2.5.02c-.87,3.47-3.86,6.09-8.5,6.05Zm-6.58-10.56l12.98.1c.13-4.29-2.96-6.48-6.37-6.5-3.35-.03-6.3,2.11-6.6,6.4Z"/><path class="cls-1" d="m41,2.72c-2.91,8.48-8.5,15.37-13.42,22.66-4.16,6.16-6.02,12.87-3.84,20.17.81,2.7,2.25,5.26,3.69,7.72,1.27,2.17,2.97,4.08,4.39,6.17,4.38,6.43,5.3,13.41,2.54,20.63-1.49,3.91-3.49,7.65-5.57,11.3-3.67,6.46-5.76,13.23-5.07,20.71.56,6.05,2.51,11.7,5.66,16.81,3.22,5.24,6.9,10.21,10.53,15.52-.64.54-1.57,1.34-2.82,2.41-2.65-3.48-5.36-6.77-7.77-10.27-4.86-7.07-8.48-14.67-9.48-23.34-.88-7.65.68-14.77,4.25-21.53,2.06-3.9,4.27-7.75,6.04-11.78,2.92-6.63,2.18-13-2.11-18.89-1.03-1.42-2.08-2.83-3.12-4.24-7.53-10.22-8.1-21.41-1.52-32.25,1.78-2.94,3.81-5.72,5.81-8.52,3.4-4.76,6.47-9.68,8.02-15.39h3.79v2.11Z"/><path class="cls-1" d="m28.77.62c.82.34,1.63.67,2.83,1.17-.61,1.75-1,3.76-1.96,5.45-2.49,4.38-5.29,8.58-7.88,12.91-2.44,4.08-5.33,8.01-7.03,12.38-2.55,6.56-1.42,13.13,2.26,19.15,1.02,1.67,2.17,3.29,3.42,4.8,7.53,9.15,7.69,18.86,2.27,29.01-1.88,3.53-3.99,6.95-5.63,10.58-4.56,10.06-3.34,19.96,1.28,29.66,2.89,6.06,6.79,11.46,11.09,16.58.45.53.88,1.07,1.44,1.75-1.02.88-1.95,1.68-3.05,2.63-9.46-11.31-17.67-22.96-17.57-38.44.04-5.65,1.53-10.95,4.12-15.95,1.91-3.67,3.98-7.26,5.8-10.98,3.62-7.42,3.07-14.51-2.03-21.14-1.24-1.61-2.48-3.24-3.61-4.93-6.34-9.53-6.87-19.42-1.28-29.39,2.43-4.33,5.63-8.22,8.25-12.45,1.98-3.21,3.65-6.61,5.35-9.98.42-.84.45-1.88.66-2.82.42,0,.84,0,1.26,0Z"/><path class="cls-1" d="m19.5.62c.83.33,1.65.65,2.85,1.12-.85,2.22-1.42,4.58-2.6,6.57-2.7,4.58-5.74,8.97-8.56,13.48-1.82,2.91-3.82,5.76-5.19,8.88-3.16,7.18-2.41,14.25,1.64,20.92,1.38,2.27,3.05,4.37,4.64,6.52,5.5,7.45,6.23,15.45,2.6,23.85-1.36,3.14-2.96,6.21-4.73,9.15-7.2,11.96-6.92,24.05-.36,35.99,2.85,5.19,6.61,9.89,9.98,14.8.47.68,1.05,1.29,1.7,2.08-1.01.89-1.93,1.71-3.01,2.67C8.59,134.82.04,122.63.96,106.32c.31-5.57,2.16-10.68,4.79-15.56,2.02-3.76,4.1-7.51,5.8-11.42,2.76-6.36,1.92-12.47-2.04-18.14-1.37-1.96-2.87-3.82-4.21-5.79-6.45-9.55-7.1-19.5-1.43-29.55,2.72-4.81,6.33-9.11,9.12-13.88,2.1-3.59,3.52-7.56,5.25-11.37.42,0,.84,0,1.26,0Z"/></g></svg>